<svg width="16" height="16" viewBox="0 0 16 16" fill="none" xmlns="http://www.w3.org/2000/svg">
<path d="M4 1.63148L4 14.367C4 14.8315 4.35849 15.1992 4.81132 15.1992L11.1887 15.1992C11.6415 15.1992 12 14.8315 12 14.367L12 1.63148C12 1.18632 11.6415 0.799218 11.1887 0.799218L4.81132 0.799218C4.37736 0.799218 4 1.16696 4 1.63148ZM8.67925 13.6121C8.67925 13.9992 8.37736 14.2895 8.01887 14.2895C7.64151 14.2895 7.33962 13.9799 7.33962 13.6121C7.33962 13.225 7.64151 12.9347 8.01887 12.9347C8.37736 12.9347 8.67925 13.2444 8.67925 13.6121ZM10.9434 3.00567L10.9434 12.0444L5.03774 12.0444L5.03774 3.00567L10.9434 3.00567ZM8.90566 1.63148C9.0566 1.63148 9.16981 1.7476 9.16981 1.90244C9.16981 2.05728 9.0566 2.17341 8.90566 2.17341L7.07547 2.17341C6.92453 2.17341 6.81132 2.05728 6.81132 1.90244C6.81132 1.7476 6.92453 1.63148 7.07547 1.63148L8.90566 1.63148Z" fill="#00A88E"/>
</svg>
