<svg width="16" height="16" viewBox="0 0 16 16" fill="none" xmlns="http://www.w3.org/2000/svg">
<path d="M1 5.48095V11.2786C1 11.8429 1.3175 12.3619 1.83 12.6429L7.1825 15.5548C7.69 15.831 8.31 15.831 8.8175 15.5548L14.17 12.6429C14.6825 12.3643 15 11.8429 15 11.2786V5.48095C15 4.91667 14.6825 4.39762 14.17 4.11905L8.8175 1.20714C8.31 0.930952 7.69 0.930952 7.1825 1.20714L1.83 4.11905C1.3175 4.39762 1 4.91905 1 5.48095Z" fill="#00A88E"/>
<path d="M10.125 6.35584C10.125 5.23679 9.175 4.33203 8 4.33203C6.825 4.33203 5.875 5.23679 5.875 6.35584V6.7606H5.925C6.125 7.68917 6.975 8.37965 8 8.37965C9.025 8.37965 9.875 7.68917 10.075 6.7606H10.125V6.35584ZM8 5.04632C8.275 5.04632 8.5 5.2606 8.5 5.52251C8.5 5.78441 8.275 5.9987 8 5.9987C7.725 5.9987 7.5 5.78441 7.5 5.52251C7.5 5.2606 7.725 5.04632 8 5.04632Z" fill="#BB8A19"/>
<path d="M7.25 9.09459V7.66602H8.75V12.0232H7.25V11.2374L7.75 10.7613L7.25 10.2851V10.047L7.75 9.57078L7.25 9.09459Z" fill="#58595B"/>
<path d="M7.25 7.66602V9.33268L7.625 9.68983V9.92792L7.25 10.2851V10.5232L7.625 10.8803V11.1184L7.25 11.4755V12.0232L8 12.4279L8.75 12.0232V7.66602H7.25Z" fill="white"/>
<path d="M8.125 11.7138C8.2 11.7138 8.25 11.6662 8.25 11.5948V8.02334C8.25 7.95192 8.2 7.9043 8.125 7.9043C8.05 7.9043 8 7.95192 8 8.02334V11.5948C8 11.6662 8.05 11.7138 8.125 11.7138Z" fill="#BCBEC0"/>
<path d="M8 4.57031C6.825 4.57031 5.875 5.47507 5.875 6.59412C5.875 7.71317 6.825 8.61793 8 8.61793C9.175 8.61793 10.125 7.71317 10.125 6.59412C10.125 5.47507 9.175 4.57031 8 4.57031ZM8 6.23698C7.725 6.23698 7.5 6.02269 7.5 5.76079C7.5 5.49888 7.725 5.2846 8 5.2846C8.275 5.2846 8.5 5.49888 8.5 5.76079C8.5 6.02269 8.275 6.23698 8 6.23698Z" fill="#FDB924"/>
</svg>
