<svg width="21" height="20" viewBox="0 0 21 20" fill="none" xmlns="http://www.w3.org/2000/svg">
<path fill-rule="evenodd" clip-rule="evenodd" d="M10.7695 16.6667C14.4514 16.6667 17.4362 13.6819 17.4362 10C17.4362 6.3181 14.4514 3.33333 10.7695 3.33333C7.08763 3.33333 4.10286 6.3181 4.10286 10C4.10286 13.6819 7.08763 16.6667 10.7695 16.6667ZM10.7695 18C15.1878 18 18.7695 14.4183 18.7695 10C18.7695 5.58172 15.1878 2 10.7695 2C6.35125 2 2.76953 5.58172 2.76953 10C2.76953 14.4183 6.35125 18 10.7695 18Z" fill="#666666"/>
<path d="M9.75703 11.8307H11.0187V11.2983C11.0187 9.73993 13.3695 9.51917 13.3695 7.37646C13.3695 5.935 12.0945 5 10.5938 5C9.14609 5 8.26953 5.83111 8.26953 5.83111L8.98672 6.72715C8.98672 6.72715 9.66406 6.18174 10.5008 6.18174C11.3773 6.18174 12.0148 6.74014 12.0148 7.46736C12.0148 8.96076 9.75703 9.24646 9.75703 11.2203V11.8307ZM9.73047 14.35H11.0453V13.0903H9.73047V14.35Z" fill="#636968"/>
</svg>
