<svg width="16" height="16" viewBox="0 0 16 16" fill="none" xmlns="http://www.w3.org/2000/svg">
<path fill-rule="evenodd" clip-rule="evenodd" d="M11.7966 3.29961V4.43293H10.6633V3.29961H11.7966ZM8.96328 3.29961V4.43293H10.0966V3.29961H8.96328ZM8.96328 6.69961V7.83293H10.0966V6.69961H8.96328ZM10.6633 6.69961V7.83293H11.7966V6.69961H10.6633ZM4.43098 2.73293H12.3642V4.99958H5.5643V6.1329H12.3642V8.39955H4.43098V7.83289H3.29766V9.53287H13.4976V1.59961H3.29766V3.29959H4.43098V2.73293ZM15.1975 14.0662H9.99558C9.75156 14.7386 9.11283 15.1862 8.3976 15.1862C7.68237 15.1862 7.04363 14.7386 6.79961 14.0662H1.59766V12.9329H6.79961C6.97096 12.4516 7.34966 12.0729 7.83094 11.9016V10.0996H8.96426V11.9016C9.44553 12.0729 9.82423 12.4516 9.99558 12.9329H15.1975V14.0662ZM8.96535 13.4991C8.96535 13.1861 8.71165 12.9324 8.39869 12.9324C8.08573 12.9324 7.83203 13.1861 7.83203 13.4991C7.83203 13.812 8.08573 14.0657 8.39869 14.0657C8.71165 14.0657 8.96535 13.812 8.96535 13.4991ZM1.71677 7.2213C1.78972 7.2663 1.88182 7.2663 1.95477 7.2213L4.32908 5.77064C4.39316 5.72746 4.43158 5.65525 4.43158 5.57798C4.43158 5.50071 4.39316 5.4285 4.32908 5.38531L1.95477 3.93466C1.8845 3.8852 1.79229 3.87974 1.71667 3.92055C1.64105 3.96137 1.59501 4.04144 1.59777 4.12733V7.02863C1.60022 7.10949 1.64557 7.18291 1.71677 7.2213Z" fill="#00A88E"/>
</svg>
