<svg width="115" height="20" viewBox="0 0 115 20" fill="none" xmlns="http://www.w3.org/2000/svg">
<path d="M101.351 5.00833C101.784 3.51021 102.001 2.76115 102.335 2.57182C102.623 2.40835 102.976 2.40835 103.265 2.57182C103.599 2.76115 103.815 3.51021 104.249 5.00833L104.814 6.96408C104.931 7.36703 104.989 7.5685 105.108 7.716C105.213 7.84614 105.35 7.94608 105.507 8.00557C105.684 8.073 105.893 8.06617 106.313 8.05251L108.347 7.98622C109.906 7.93544 110.685 7.91005 110.969 8.16921C111.213 8.39296 111.322 8.72872 111.256 9.05349C111.179 9.42967 110.534 9.86723 109.243 10.7423L107.558 11.8848C107.21 12.1201 107.037 12.2378 106.933 12.3964C106.842 12.5363 106.789 12.698 106.781 12.865C106.772 13.0541 106.843 13.2514 106.985 13.6459L107.677 15.5607C108.207 17.0274 108.472 17.7608 108.313 18.1103C108.176 18.412 107.89 18.6195 107.561 18.6568C107.18 18.6999 106.564 18.2213 105.333 17.264L103.726 16.0143C103.394 15.7569 103.229 15.6281 103.046 15.5786C102.885 15.535 102.715 15.535 102.553 15.5786C102.371 15.6281 102.205 15.7569 101.874 16.0143L100.267 17.264C99.0354 18.2213 98.4198 18.6999 98.0383 18.6568C97.7089 18.6195 97.4233 18.412 97.286 18.1103C97.1271 17.7608 97.3921 17.0274 97.922 15.5607L98.6139 13.6459C98.7564 13.2514 98.8277 13.0541 98.8183 12.865C98.81 12.698 98.7574 12.5363 98.666 12.3964C98.5625 12.2378 98.3889 12.1201 98.0417 11.8848L96.3565 10.7423C95.0656 9.86723 94.4202 9.42967 94.3433 9.05349C94.277 8.72872 94.3861 8.39296 94.6306 8.16921C94.9139 7.91005 95.6933 7.93544 97.252 7.98622L99.2869 8.05251C99.7061 8.06617 99.9157 8.073 100.093 8.00557C100.249 7.94608 100.386 7.84614 100.491 7.716C100.61 7.5685 100.668 7.36703 100.785 6.96408L101.351 5.00833Z" fill="url(#paint0_linear_3171_13845)"/>
<path d="M77.7413 5.00833C78.1747 3.51021 78.3914 2.76115 78.7254 2.57182C79.0138 2.40835 79.3668 2.40835 79.6552 2.57182C79.9892 2.76115 80.2059 3.51021 80.6393 5.00833L81.205 6.96408C81.3216 7.36703 81.3799 7.5685 81.4987 7.716C81.6036 7.84614 81.7411 7.94608 81.8973 8.00557C82.0743 8.073 82.2839 8.06617 82.7031 8.05251L84.738 7.98622C86.2967 7.93544 87.0761 7.91005 87.3594 8.16921C87.6039 8.39296 87.713 8.72872 87.6467 9.05349C87.5698 9.42967 86.9244 9.86723 85.6335 10.7423L83.9483 11.8848C83.6011 12.1201 83.4275 12.2378 83.3239 12.3964C83.2326 12.5363 83.18 12.698 83.1717 12.865C83.1623 13.0541 83.2335 13.2514 83.3761 13.6459L84.0679 15.5607C84.5979 17.0274 84.8629 17.7608 84.704 18.1103C84.5667 18.412 84.2811 18.6195 83.9517 18.6568C83.5702 18.6999 82.9546 18.2213 81.7235 17.264L80.1162 16.0143C79.785 15.7569 79.6195 15.6281 79.4366 15.5786C79.2753 15.535 79.1053 15.535 78.944 15.5786C78.7612 15.6281 78.5956 15.7569 78.2644 16.0143L76.6572 17.264C75.426 18.2213 74.8104 18.6999 74.4289 18.6568C74.0995 18.6195 73.8139 18.412 73.6767 18.1103C73.5177 17.7608 73.7827 17.0274 74.3127 15.5607L75.0045 13.6459C75.1471 13.2514 75.2183 13.0541 75.2089 12.865C75.2006 12.698 75.1481 12.5363 75.0567 12.3964C74.9531 12.2378 74.7795 12.1201 74.4323 11.8848L72.7471 10.7423C71.4562 9.86723 70.8108 9.42967 70.7339 9.05349C70.6676 8.72872 70.7767 8.39296 71.0213 8.16921C71.3046 7.91005 72.0839 7.93544 73.6426 7.98622L75.6775 8.05251C76.0967 8.06617 76.3064 8.073 76.4833 8.00557C76.6395 7.94608 76.7771 7.84614 76.8819 7.716C77.0007 7.5685 77.059 7.36703 77.1756 6.96408L77.7413 5.00833Z" fill="#FFE810"/>
<path d="M55.1124 5.00833C55.5458 3.51021 55.7625 2.76115 56.0965 2.57182C56.3849 2.40835 56.7379 2.40835 57.0263 2.57182C57.3603 2.76115 57.577 3.51021 58.0104 5.00833L58.5761 6.96408C58.6927 7.36703 58.751 7.5685 58.8698 7.716C58.9746 7.84614 59.1122 7.94608 59.2684 8.00557C59.4454 8.073 59.655 8.06617 60.0742 8.05251L62.1091 7.98622C63.6678 7.93544 64.4472 7.91005 64.7305 8.16921C64.975 8.39296 65.0841 8.72872 65.0178 9.05349C64.9409 9.42967 64.2955 9.86723 63.0046 10.7423L61.3194 11.8848C60.9722 12.1201 60.7986 12.2378 60.695 12.3964C60.6037 12.5363 60.5511 12.698 60.5428 12.865C60.5334 13.0541 60.6046 13.2514 60.7472 13.6459L61.439 15.5607C61.969 17.0274 62.234 17.7608 62.075 18.1103C61.9378 18.412 61.6522 18.6195 61.3228 18.6568C60.9413 18.6999 60.3257 18.2213 59.0945 17.264L57.4873 16.0143C57.1561 15.7569 56.9906 15.6281 56.8077 15.5786C56.6464 15.535 56.4764 15.535 56.3151 15.5786C56.1323 15.6281 55.9667 15.7569 55.6355 16.0143L54.0283 17.264C52.7971 18.2213 52.1815 18.6999 51.8 18.6568C51.4706 18.6195 51.185 18.412 51.0478 18.1103C50.8888 17.7608 51.1538 17.0274 51.6838 15.5607L52.3756 13.6459C52.5182 13.2514 52.5894 13.0541 52.58 12.865C52.5717 12.698 52.5191 12.5363 52.4278 12.3964C52.3242 12.2378 52.1506 12.1201 51.8034 11.8848L50.1182 10.7423C48.8273 9.86723 48.1819 9.42967 48.105 9.05349C48.0387 8.72872 48.1478 8.39296 48.3924 8.16921C48.6756 7.91005 49.455 7.93544 51.0137 7.98622L53.0486 8.05251C53.4678 8.06617 53.6774 8.073 53.8544 8.00557C54.0106 7.94608 54.1482 7.84614 54.253 7.716C54.3718 7.5685 54.4301 7.36703 54.5467 6.96408L55.1124 5.00833Z" fill="#FFE810"/>
<path d="M32.4874 5.00833C32.9208 3.51021 33.1375 2.76115 33.4715 2.57182C33.7599 2.40835 34.1129 2.40835 34.4013 2.57182C34.7353 2.76115 34.952 3.51021 35.3854 5.00833L35.9511 6.96408C36.0677 7.36703 36.126 7.5685 36.2448 7.716C36.3496 7.84614 36.4872 7.94608 36.6434 8.00557C36.8204 8.073 37.03 8.06617 37.4492 8.05251L39.4841 7.98622C41.0428 7.93544 41.8222 7.91005 42.1055 8.16921C42.35 8.39296 42.4591 8.72872 42.3928 9.05349C42.3159 9.42967 41.6705 9.86723 40.3796 10.7423L38.6944 11.8848C38.3472 12.1201 38.1736 12.2378 38.07 12.3964C37.9787 12.5363 37.9261 12.698 37.9178 12.865C37.9084 13.0541 37.9796 13.2514 38.1222 13.6459L38.814 15.5607C39.344 17.0274 39.609 17.7608 39.45 18.1103C39.3128 18.412 39.0272 18.6195 38.6978 18.6568C38.3163 18.6999 37.7007 18.2213 36.4695 17.264L34.8623 16.0143C34.5311 15.7569 34.3656 15.6281 34.1827 15.5786C34.0214 15.535 33.8514 15.535 33.6901 15.5786C33.5073 15.6281 33.3417 15.7569 33.0105 16.0143L31.4033 17.264C30.1721 18.2213 29.5565 18.6999 29.175 18.6568C28.8456 18.6195 28.56 18.412 28.4228 18.1103C28.2638 17.7608 28.5288 17.0274 29.0588 15.5607L29.7506 13.6459C29.8932 13.2514 29.9644 13.0541 29.955 12.865C29.9467 12.698 29.8941 12.5363 29.8028 12.3964C29.6992 12.2378 29.5256 12.1201 29.1784 11.8848L27.4932 10.7423C26.2023 9.86723 25.5569 9.42967 25.48 9.05349C25.4137 8.72872 25.5228 8.39296 25.7674 8.16921C26.0506 7.91005 26.83 7.93544 28.3887 7.98622L30.4236 8.05251C30.8428 8.06617 31.0524 8.073 31.2294 8.00557C31.3856 7.94608 31.5232 7.84614 31.628 7.716C31.7468 7.5685 31.8051 7.36703 31.9217 6.96408L32.4874 5.00833Z" fill="#FFE810"/>
<path d="M9.86243 5.00833C10.2958 3.51021 10.5125 2.76115 10.8465 2.57182C11.1349 2.40835 11.4879 2.40835 11.7763 2.57182C12.1103 2.76115 12.327 3.51021 12.7604 5.00833L13.3261 6.96408C13.4427 7.36703 13.501 7.5685 13.6198 7.716C13.7246 7.84614 13.8622 7.94608 14.0184 8.00557C14.1954 8.073 14.405 8.06617 14.8242 8.05251L16.8591 7.98622C18.4178 7.93544 19.1972 7.91005 19.4805 8.16921C19.725 8.39296 19.8341 8.72872 19.7678 9.05349C19.6909 9.42967 19.0455 9.86723 17.7546 10.7423L16.0694 11.8848C15.7222 12.1201 15.5486 12.2378 15.445 12.3964C15.3537 12.5363 15.3011 12.698 15.2928 12.865C15.2834 13.0541 15.3546 13.2514 15.4972 13.6459L16.189 15.5607C16.719 17.0274 16.984 17.7608 16.825 18.1103C16.6878 18.412 16.4022 18.6195 16.0728 18.6568C15.6913 18.6999 15.0757 18.2213 13.8445 17.264L12.2373 16.0143C11.9061 15.7569 11.7406 15.6281 11.5577 15.5786C11.3964 15.535 11.2264 15.535 11.0651 15.5786C10.8823 15.6281 10.7167 15.7569 10.3855 16.0143L8.77826 17.264C7.54708 18.2213 6.93149 18.6999 6.54997 18.6568C6.22059 18.6195 5.93498 18.412 5.79776 18.1103C5.63882 17.7608 5.9038 17.0274 6.43377 15.5607L7.12562 13.6459C7.26816 13.2514 7.33943 13.0541 7.33001 12.865C7.32169 12.698 7.26915 12.5363 7.17777 12.3964C7.07421 12.2378 6.9006 12.1201 6.5534 11.8848L4.8682 10.7423C3.57732 9.86723 2.93189 9.42967 2.85504 9.05349C2.78869 8.72872 2.89778 8.39296 3.14236 8.16921C3.42565 7.91005 4.205 7.93544 5.76371 7.98622L7.79857 8.05251C8.21782 8.06617 8.42744 8.073 8.60444 8.00557C8.76061 7.94608 8.89816 7.84614 9.003 7.716C9.12182 7.5685 9.1801 7.36703 9.29667 6.96408L9.86243 5.00833Z" fill="#FFE810"/>
<defs>
<linearGradient id="paint0_linear_3171_13845" x1="111.284" y1="11.3123" x2="93.3723" y2="11.3123" gradientUnits="userSpaceOnUse">
<stop offset="0.458564" stop-color="#CCCCCC"/>
<stop offset="0.458664" stop-color="#FFE810"/>
</linearGradient>
</defs>
</svg>
