<svg width="16" height="16" viewBox="0 0 16 16" fill="none" xmlns="http://www.w3.org/2000/svg">
<path d="M1.37421 10.337V10.3265C1.37421 9.57034 1.94859 9.0001 2.70964 9.0001H3.93497H4.99982L6.06467 9H7.29137C8.05212 9 8.74988 9.57024 8.74988 10.3264L9.14844 13H0.999818L1.37421 10.337Z" fill="#00A88E"/>
<path fill-rule="evenodd" clip-rule="evenodd" d="M10.9168 7.31806C9.7156 7.31806 8.74108 6.35116 8.74108 5.15877C8.74108 3.967 9.7156 3 10.9168 3C12.1186 3 13.0932 3.96711 13.0932 5.15877C13.0932 6.35116 12.1187 7.31806 10.9168 7.31806ZM7.36662 9.62459V9.61327C7.36662 9.44394 7.39081 9.28326 7.43582 9.13491H7.51078C8.23968 9.13491 8.78955 9.70063 8.78955 10.4508L8.79124 10.471L9.06593 12.4993H7L7.36662 9.62459ZM7.82677 8.50566L7.87025 8.5C8.86663 8.5 9.57362 9.53173 9.57476 10.4329L9.86089 12.4993H14.8338L14.4695 9.63507L14.4678 9.61316C14.4678 8.79683 13.9058 8.18125 13.1609 8.18125H11.9596L9.87418 8.18136H8.6743C8.34527 8.18136 8.05186 8.30136 7.82677 8.50566Z" fill="#00A88E"/>
<path d="M4.99966 8C3.89568 8 3 7.10432 3 5.99976C3 4.89577 3.89568 4 4.99966 4C6.10423 4 7 4.89587 7 5.99976C7 7.10432 6.10432 8 4.99966 8Z" fill="#00A88E"/>
</svg>
