<svg width="272" height="131" viewBox="0 0 272 131" fill="none" xmlns="http://www.w3.org/2000/svg">
<rect x="83" y="38" width="189" height="40" rx="3.77931" fill="#FFE810"/>
<path d="M115.784 51.7H118.083L120.363 61.694C120.439 62.0107 120.49 62.3337 120.515 62.663H120.819C120.87 62.207 120.92 61.884 120.971 61.694L123.479 51.7H125.683L128.191 61.694C128.267 62.0107 128.318 62.3337 128.343 62.663H128.647C128.698 62.207 128.748 61.884 128.799 61.694L131.079 51.7H133.378L130.091 65H126.88L124.961 57.324C124.86 56.8807 124.784 56.3803 124.733 55.823H124.429C124.378 56.3803 124.302 56.8807 124.201 57.324L122.282 65H119.071L115.784 51.7ZM137.533 55.614C138.698 55.614 139.629 55.8927 140.326 56.45C141.035 56.9947 141.39 57.8243 141.39 58.939V65H139.281V64.221H138.977C138.685 64.5123 138.293 64.753 137.799 64.943C137.317 65.133 136.811 65.228 136.279 65.228C135.265 65.228 134.467 64.9747 133.885 64.468C133.302 63.9613 133.011 63.2837 133.011 62.435C133.011 61.5483 133.308 60.8517 133.904 60.345C134.499 59.8257 135.341 59.566 136.431 59.566H139.281V59.053C139.281 58.5843 139.135 58.217 138.844 57.951C138.552 57.6723 138.109 57.533 137.514 57.533C136.969 57.533 136.532 57.647 136.203 57.875C135.886 58.0903 135.696 58.3943 135.633 58.787H133.391C133.492 57.837 133.91 57.0707 134.645 56.488C135.392 55.9053 136.355 55.614 137.533 55.614ZM136.754 63.461C137.767 63.461 138.609 63.0367 139.281 62.188V61.086H136.64C136.158 61.086 135.791 61.1873 135.538 61.39C135.284 61.58 135.158 61.8713 135.158 62.264C135.158 62.6567 135.303 62.9543 135.595 63.157C135.886 63.3597 136.272 63.461 136.754 63.461ZM146.945 65C145.995 65 145.254 64.753 144.722 64.259C144.19 63.7523 143.924 62.986 143.924 61.96V57.78H142.043V55.842H143.924V53.372H146.033V55.842H148.902V57.78H146.033V61.637C146.033 62.1057 146.14 62.454 146.356 62.682C146.584 62.8973 146.938 63.005 147.42 63.005H148.807V65H146.945ZM154.208 65.228C153.309 65.228 152.511 65.0253 151.814 64.62C151.118 64.202 150.573 63.6257 150.18 62.891C149.8 62.1563 149.61 61.333 149.61 60.421C149.61 59.509 149.8 58.6857 150.18 57.951C150.573 57.2163 151.118 56.6463 151.814 56.241C152.511 55.823 153.309 55.614 154.208 55.614C155.31 55.614 156.248 55.9243 157.02 56.545C157.793 57.1657 158.262 57.989 158.426 59.015H156.336C156.197 58.5337 155.944 58.1663 155.576 57.913C155.222 57.647 154.766 57.514 154.208 57.514C153.461 57.514 152.847 57.7737 152.365 58.293C151.897 58.7997 151.662 59.509 151.662 60.421C151.662 61.3457 151.903 62.0613 152.384 62.568C152.866 63.0747 153.467 63.328 154.189 63.328C154.759 63.328 155.222 63.2013 155.576 62.948C155.944 62.682 156.197 62.3083 156.336 61.827H158.426C158.262 62.853 157.793 63.6763 157.02 64.297C156.248 64.9177 155.31 65.228 154.208 65.228ZM159.661 51.32H161.77V56.925H162.074C162.289 56.5577 162.625 56.2473 163.081 55.994C163.549 55.7407 164.113 55.614 164.772 55.614C165.734 55.614 166.539 55.899 167.185 56.469C167.831 57.039 168.154 57.9257 168.154 59.129V65H166.045V59.794C166.045 59.0973 165.855 58.578 165.475 58.236C165.107 57.8813 164.626 57.704 164.031 57.704C163.321 57.704 162.764 57.932 162.359 58.388C161.966 58.844 161.77 59.4647 161.77 60.25V65H159.661V51.32ZM177.302 65C176.352 65 175.611 64.753 175.079 64.259C174.547 63.7523 174.281 62.986 174.281 61.96V57.78H172.4V55.842H174.281V53.372H176.39V55.842H179.259V57.78H176.39V61.637C176.39 62.1057 176.498 62.454 176.713 62.682C176.941 62.8973 177.296 63.005 177.777 63.005H179.164V65H177.302ZM180.643 51.32H182.752V56.925H183.056C183.271 56.5577 183.607 56.2473 184.063 55.994C184.532 55.7407 185.095 55.614 185.754 55.614C186.717 55.614 187.521 55.899 188.167 56.469C188.813 57.039 189.136 57.9257 189.136 59.129V65H187.027V59.794C187.027 59.0973 186.837 58.578 186.457 58.236C186.09 57.8813 185.608 57.704 185.013 57.704C184.304 57.704 183.746 57.932 183.341 58.388C182.948 58.844 182.752 59.4647 182.752 60.25V65H180.643V51.32ZM194.851 65.228C193.939 65.228 193.128 65.0253 192.419 64.62C191.722 64.202 191.184 63.632 190.804 62.91C190.424 62.1753 190.234 61.352 190.234 60.44C190.234 59.528 190.424 58.7047 190.804 57.97C191.184 57.2353 191.722 56.659 192.419 56.241C193.116 55.823 193.92 55.614 194.832 55.614C195.693 55.614 196.453 55.7977 197.112 56.165C197.783 56.5323 198.303 57.0453 198.67 57.704C199.037 58.35 199.221 59.0847 199.221 59.908V60.991H192.343C192.432 61.751 192.698 62.3337 193.141 62.739C193.584 63.1317 194.148 63.328 194.832 63.328C195.377 63.328 195.826 63.214 196.181 62.986C196.536 62.7453 196.789 62.4287 196.941 62.036H199.05C198.797 62.9987 198.303 63.7713 197.568 64.354C196.833 64.9367 195.928 65.228 194.851 65.228ZM197.169 59.433C197.144 58.8503 196.922 58.369 196.504 57.989C196.099 57.5963 195.548 57.4 194.851 57.4C194.23 57.4 193.698 57.5773 193.255 57.932C192.824 58.2867 192.539 58.787 192.4 59.433H197.169ZM203.316 55.842H205.634L207.705 61.827C207.73 61.903 207.768 62.0297 207.819 62.207C207.869 62.3843 207.92 62.5807 207.971 62.796H208.256C208.306 62.5807 208.357 62.3843 208.408 62.207C208.458 62.0297 208.496 61.903 208.522 61.827L210.593 55.842H212.911L209.529 65H206.698L203.316 55.842ZM213.653 51.814H215.933V54.075H213.653V51.814ZM213.748 55.842H215.857V65H213.748V55.842ZM221.226 65.228C220.504 65.228 219.827 65.0507 219.193 64.696C218.573 64.3287 218.066 63.7903 217.673 63.081C217.293 62.359 217.103 61.4913 217.103 60.478C217.103 59.4267 217.306 58.5337 217.711 57.799C218.117 57.0643 218.642 56.5197 219.288 56.165C219.947 55.7977 220.644 55.614 221.378 55.614C221.936 55.614 222.474 55.7217 222.993 55.937C223.525 56.1523 223.975 56.488 224.342 56.944V51.32H226.451V65H224.342V63.803H224.057C223.753 64.2843 223.348 64.6453 222.841 64.886C222.347 65.114 221.809 65.228 221.226 65.228ZM221.796 63.252C222.506 63.252 223.107 63.0113 223.601 62.53C224.095 62.0487 224.342 61.3457 224.342 60.421C224.342 59.4963 224.095 58.7933 223.601 58.312C223.107 57.8307 222.506 57.59 221.796 57.59C221.087 57.59 220.479 57.8307 219.972 58.312C219.478 58.7807 219.231 59.4837 219.231 60.421C219.231 61.3583 219.478 62.0677 219.972 62.549C220.479 63.0177 221.087 63.252 221.796 63.252ZM232.283 65.228C231.371 65.228 230.561 65.0253 229.851 64.62C229.155 64.202 228.616 63.632 228.236 62.91C227.856 62.1753 227.666 61.352 227.666 60.44C227.666 59.528 227.856 58.7047 228.236 57.97C228.616 57.2353 229.155 56.659 229.851 56.241C230.548 55.823 231.352 55.614 232.264 55.614C233.126 55.614 233.886 55.7977 234.544 56.165C235.216 56.5323 235.735 57.0453 236.102 57.704C236.47 58.35 236.653 59.0847 236.653 59.908V60.991H229.775C229.864 61.751 230.13 62.3337 230.573 62.739C231.017 63.1317 231.58 63.328 232.264 63.328C232.809 63.328 233.259 63.214 233.613 62.986C233.968 62.7453 234.221 62.4287 234.373 62.036H236.482C236.229 62.9987 235.735 63.7713 235 64.354C234.266 64.9367 233.36 65.228 232.283 65.228ZM234.601 59.433C234.576 58.8503 234.354 58.369 233.936 57.989C233.531 57.5963 232.98 57.4 232.283 57.4C231.663 57.4 231.131 57.5773 230.687 57.932C230.257 58.2867 229.972 58.787 229.832 59.433H234.601ZM242.292 65.228C241.355 65.228 240.525 65.0127 239.803 64.582C239.094 64.1513 238.543 63.575 238.15 62.853C237.757 62.1183 237.561 61.3077 237.561 60.421C237.561 59.5343 237.757 58.73 238.15 58.008C238.543 57.2733 239.094 56.6907 239.803 56.26C240.525 55.8293 241.355 55.614 242.292 55.614C243.229 55.614 244.059 55.8293 244.781 56.26C245.503 56.6907 246.06 57.2733 246.453 58.008C246.846 58.73 247.042 59.5343 247.042 60.421C247.042 61.3077 246.846 62.1183 246.453 62.853C246.06 63.575 245.503 64.1513 244.781 64.582C244.059 65.0127 243.229 65.228 242.292 65.228ZM242.292 63.252C243.027 63.252 243.647 62.9987 244.154 62.492C244.661 61.9727 244.914 61.2823 244.914 60.421C244.914 59.5597 244.661 58.8757 244.154 58.369C243.647 57.8497 243.027 57.59 242.292 57.59C241.557 57.59 240.937 57.8497 240.43 58.369C239.923 58.8757 239.67 59.5597 239.67 60.421C239.67 61.2823 239.923 61.9727 240.43 62.492C240.937 62.9987 241.557 63.252 242.292 63.252Z" fill="#1D1D1B"/>
<g filter="url(#filter0_d_3171_13727)">
<circle cx="65.5" cy="57.5" r="33.5" fill="white"/>
</g>
<rect width="44" height="44" transform="translate(44 36)" fill="white"/>
<path fill-rule="evenodd" clip-rule="evenodd" d="M66 72C73.732 72 80 65.732 80 58C80 50.268 73.732 44 66 44C58.268 44 52 50.268 52 58C52 65.732 58.268 72 66 72ZM66 74C74.8366 74 82 66.8366 82 58C82 49.1634 74.8366 42 66 42C57.1634 42 50 49.1634 50 58C50 66.8366 57.1634 74 66 74Z" fill="#1D1D1B"/>
<path d="M61 50V66L75 58L61 50Z" fill="#00A88E"/>
<defs>
<filter id="filter0_d_3171_13727" x="0" y="0" width="131" height="131" filterUnits="userSpaceOnUse" color-interpolation-filters="sRGB">
<feFlood flood-opacity="0" result="BackgroundImageFix"/>
<feColorMatrix in="SourceAlpha" type="matrix" values="0 0 0 0 0 0 0 0 0 0 0 0 0 0 0 0 0 0 127 0" result="hardAlpha"/>
<feOffset dy="8"/>
<feGaussianBlur stdDeviation="16"/>
<feColorMatrix type="matrix" values="0 0 0 0 0 0 0 0 0 0.372549 0 0 0 0 0.313726 0 0 0 0.52 0"/>
<feBlend mode="normal" in2="BackgroundImageFix" result="effect1_dropShadow_3171_13727"/>
<feBlend mode="normal" in="SourceGraphic" in2="effect1_dropShadow_3171_13727" result="shape"/>
</filter>
</defs>
</svg>
